<svg xmlns="http://www.w3.org/2000/svg" width="18" height="15" fill="none">
    <path fill="#9B9BCA" fill-rule="evenodd"
        d="M8.78 4.64l-.04-.65C8.623 2.31 9.65.773 11.276.177c.598-.212 1.613-.238 2.276-.053.26.08.755.344 1.106.583l.637.437.702-.226c.39-.119.91-.317 1.145-.45.221-.119.416-.185.416-.145 0 .225-.481.993-.884 1.416-.547.596-.39.65.715.252.663-.225.676-.225.546.026-.078.133-.481.596-.91 1.02-.728.728-.767.808-.767 1.417 0 .94-.443 2.9-.885 3.972-.82 2.012-2.575 4.091-4.33 5.137-2.472 1.47-5.763 1.84-8.533.98C1.587 14.252 0 13.51 0 13.378c0-.04.481-.093 1.067-.106a7.275 7.275 0 003.485-.98l.702-.424-.806-.278c-1.145-.397-2.172-1.31-2.432-2.171-.078-.278-.052-.291.676-.291l.755-.014-.638-.304c-.754-.384-1.443-1.033-1.782-1.695C.78 6.638.468 5.433.56 5.341c.026-.04.3.04.612.145.897.331 1.014.252.494-.304C.689 4.176.39 2.679.858 1.262L1.08.628l.858.86c1.756 1.735 3.824 2.768 6.19 3.073l.651.08z"
        clip-rule="evenodd" />
</svg>