<svg xmlns="http://www.w3.org/2000/svg" width="59" height="65" fill="none">
    <path fill="#9D9D9D"
        d="M58.28 61.67l-2.87-16.83a4.8 4.8 0 00-3.36-3.8l-7.76-2.35a8.63 8.63 0 00-6-7.5 15.05 15.05 0 003.77-7.5h.6a2.83 2.83 0 002.82-2.83V19.4c0-1.04-.59-1.98-1.47-2.47v-3.48a.95.95 0 00-1.9 0v3.9a5.86 5.86 0 00-1.7.59v-7.67a3.85 3.85 0 00-3.85-3.85h-2.63c-.9 0-1.79.32-2.49.9l-.26.2a2.67 2.67 0 01-3.36 0l-.26-.2a3.95 3.95 0 00-2.5-.9h-2.62a3.85 3.85 0 00-3.84 3.85v7.67a4.85 4.85 0 00-.44-.21c-.46-.2-.9-.3-1.27-.37V7.49a5.6 5.6 0 015.59-5.59h14.04a5.6 5.6 0 015.59 5.6v1.49a.95.95 0 101.9 0v-1.5A7.5 7.5 0 0036.52 0H22.48a7.5 7.5 0 00-7.5 7.5v9.44a2.84 2.84 0 00-1.46 2.47v1.45a2.83 2.83 0 002.83 2.82h.6a15.05 15.05 0 003.76 7.5 8.68 8.68 0 00-6 7.51l-7.76 2.35a4.8 4.8 0 00-3.36 3.8l-1.17 6.83A.95.95 0 104.3 52l1.17-6.83a2.9 2.9 0 012.03-2.3l7.17-2.17v1.89a4.76 4.76 0 00-3.9 4.29l-.7 8.9a2.43 2.43 0 002.42 2.6h1.19a.95.95 0 100-1.9h-1.19a.52.52 0 01-.51-.56l.69-8.9a2.88 2.88 0 012.87-2.62H15.7a2.85 2.85 0 012.88 2.62l.7 8.9a.52.52 0 01-.52.56H17.6a.95.95 0 100 1.9h1.18a2.43 2.43 0 002.42-2.6l-.7-8.9a4.71 4.71 0 00-3.91-4.3v-2.45l3.27-.99c.3.63.89 1.98 2.06 4.9a791.68 791.68 0 016.7 17.42.95.95 0 001.78 0 1237.18 1237.18 0 016.7-17.41 98.97 98.97 0 012.06-4.9l3.27.98v5.62a4.93 4.93 0 101.9 0V40.7l7.18 2.17a2.9 2.9 0 012.03 2.3l2.88 16.83a.93.93 0 01-.21.77.93.93 0 01-.72.34H3.52a.93.93 0 01-.72-.34.93.93 0 01-.2-.77l.94-5.55a.95.95 0 10-1.87-.32l-.95 5.55A2.84 2.84 0 003.52 65h51.96a2.84 2.84 0 002.8-3.33zM42.12 19.31c.5-.13.92-.13.92-.13.16 0 .32-.03.47-.1.04.1.06.21.06.33v1.45c0 .5-.4.92-.92.92h-.53V19.3zm-25.24 2.47h-.53a.92.92 0 01-.92-.92V19.4a.9.9 0 01.06-.34c.15.08.3.12.47.11 0 0 .41 0 .92.13v2.47zm1.9 1.06v-2.5a1.33 1.33 0 001.72-1.28v-8.78c0-1.07.87-1.94 1.94-1.94h2.63c.46 0 .92.16 1.28.46l.26.2a4.57 4.57 0 005.78 0l.26-.2c.36-.3.82-.46 1.28-.46h2.63c1.07 0 1.94.87 1.94 1.94v8.78a1.33 1.33 0 001.72 1.28v2.5c0 1.4-.96 4.1-2.74 6.36a12.55 12.55 0 01-2.37 2.32 9.28 9.28 0 01-11.3-.06c-.94-.7-1.7-1.51-2.29-2.26-1.78-2.27-2.74-4.97-2.74-6.36zm16.96 15.38l-6.24 4.66-6.24-4.66c.62-.78.97-1.8.97-2.7V34c1.47.8 3.22 1.32 5.27 1.32 2.05 0 3.8-.53 5.27-1.32v1.54c0 .9.35 1.9.97 2.7zm-14.06-1.06A2.6 2.6 0 0020 37.1l-3.29.99a6.76 6.76 0 015.62-5.33v2.77c0 .6-.27 1.21-.65 1.63zm2.58 7.64v-.01a289.5 289.5 0 00-.17-.43l-.14-.34-.01-.03-.41-1.02-.03-.07a217.08 217.08 0 00-.25-.64l-.04-.07-.18-.46-.05-.12-.07-.17-.07-.18-.03-.07-.02-.05-.32-.75v-.01l-.15-.37-.08-.18 5.36 4.01-2.24.95-.94.4-.16-.39zm2.27 5.83a971.46 971.46 0 00-1.42-3.66l.36-.15 1.45 1.69-.39 2.12zm2.99 7.73a.94.94 0 00-.1-.16l-1.58-4.15.89-4.87h1.54l.89 4.87-1.64 4.31zm1.1-11.08h-2.25l-1.06-1.24 2.19-.93 2.2.93-1.07 1.24zm2.42 1.88l-.57 1.47-.39-2.12 1.45-1.7.36.16-.85 2.19zm3.64-9.15l-.14.35-.02.05-.15.36-.01.03-.14.33-.03.06c0 .03-.02.06-.03.08l-.06.16-.08.19-.03.06a188.04 188.04 0 00-.34.84l-.04.1-.11.28-.03.08-.4 1-.02.04-.13.34a10.92 10.92 0 01-.18.44l-.16.4-.93-.4h-.01l-2.24-.96 5.36-4-.08.17zM39 37.1a2.6 2.6 0 00-1.68.06 2.52 2.52 0 01-.65-1.63v-2.78a6.7 6.7 0 015.62 5.34l-3.3-1zm7.38 13.48a3.02 3.02 0 11-6.04-.01 3.02 3.02 0 016.04 0z" />
</svg>