<svg xmlns="http://www.w3.org/2000/svg">
    <defs>
        <symbol id="design">
            <path fill="#9D9D9D" d="M58.65 0H6.35A6.35 6.35 0 000 6.35V45.2c0 3.5 2.85 6.34 6.35 6.34h19.8v5.84h-1.27a6.3 6.3 0 00-6.34 6.35c0 .7.56 1.27 1.26 1.27h25.4c.7 0 1.26-.57 1.26-1.27 0-3.5-2.84-6.35-6.34-6.35h-1.27v-5.84h19.8c3.5 0 6.35-2.84 6.35-6.34V6.35C65 2.85 62.15 0 58.65 0zM6.35 2.54h52.3c2.1 0 3.81 1.7 3.81 3.8v32.5h-5.84V9.65c0-.7-.57-1.26-1.27-1.26H45.2c-.7 0-1.27.57-1.27 1.27v29.2h-6.36c-.01-1.32-.05-2.61-.1-3.87a81.65 81.65 0 00-1-10.15 6.35 6.35 0 001.74-8.28l-4.4-7.62a1.27 1.27 0 00-2.2 0l-4.4 7.62a6.35 6.35 0 001.4 8 80.6 80.6 0 00-1.07 10.43c-.06 1.27-.1 2.57-.11 3.87h-6.36V19.8c0-.2-.04-.38-.12-.54l-.01-.02-5.08-10.16a1.27 1.27 0 00-2.27 0L8.51 19.24v.02c-.08.16-.13.35-.13.54v19.05H2.54V6.35c0-2.1 1.7-3.81 3.8-3.81zm40.11 36.3V10.93h7.62v2.54h-1.27a1.27 1.27 0 100 2.54h1.27v3.8h-1.27a1.27 1.27 0 100 2.54h1.27v3.81h-1.27a1.27 1.27 0 100 2.54h1.27v5.08h-1.27a1.27 1.27 0 100 2.54h1.27v2.54h-7.62zM32.71 26.07c.46 0 .92-.05 1.37-.15.24 1.51.58 4.18.79 7.86h-4.73c.22-3.67.58-6.39.83-7.95.56.16 1.15.24 1.74.24zm0-2.53a3.81 3.81 0 01-3.3-5.71l3.3-5.72 3.3 5.72a3.81 3.81 0 01-3.3 5.7zM30.02 36.3h4.96c.03.83.04 1.68.05 2.54h-5.06c0-.85.03-1.7.05-2.54zM16 38.85V21.07h2.54v17.78H16zm-5.08 0V21.07h2.54v17.78h-2.54zm.78-20.31l3.03-6.05 3.02 6.05H11.7zm32 43.92H21.3a3.8 3.8 0 013.6-2.54h15.23a3.81 3.81 0 013.59 2.54zm-7.4-5.08h-7.6v-5.84h7.6v5.84zM58.66 49H6.35c-2.1 0-3.81-1.7-3.81-3.8v-3.81h59.92v3.8c0 2.1-1.7 3.81-3.8 3.81z" />
        </symbol>

        <symbol id="health">
            <path fill="#9D9D9D" d="M58.28 61.67l-2.87-16.83a4.8 4.8 0 00-3.36-3.8l-7.76-2.35a8.63 8.63 0 00-6-7.5 15.05 15.05 0 003.77-7.5h.6a2.83 2.83 0 002.82-2.83V19.4c0-1.04-.59-1.98-1.47-2.47v-3.48a.95.95 0 00-1.9 0v3.9a5.86 5.86 0 00-1.7.59v-7.67a3.85 3.85 0 00-3.85-3.85h-2.63c-.9 0-1.79.32-2.49.9l-.26.2a2.67 2.67 0 01-3.36 0l-.26-.2a3.95 3.95 0 00-2.5-.9h-2.62a3.85 3.85 0 00-3.84 3.85v7.67a4.85 4.85 0 00-.44-.21c-.46-.2-.9-.3-1.27-.37V7.49a5.6 5.6 0 015.59-5.59h14.04a5.6 5.6 0 015.59 5.6v1.49a.95.95 0 101.9 0v-1.5A7.5 7.5 0 0036.52 0H22.48a7.5 7.5 0 00-7.5 7.5v9.44a2.84 2.84 0 00-1.46 2.47v1.45a2.83 2.83 0 002.83 2.82h.6a15.05 15.05 0 003.76 7.5 8.68 8.68 0 00-6 7.51l-7.76 2.35a4.8 4.8 0 00-3.36 3.8l-1.17 6.83A.95.95 0 104.3 52l1.17-6.83a2.9 2.9 0 012.03-2.3l7.17-2.17v1.89a4.76 4.76 0 00-3.9 4.29l-.7 8.9a2.43 2.43 0 002.42 2.6h1.19a.95.95 0 100-1.9h-1.19a.52.52 0 01-.51-.56l.69-8.9a2.88 2.88 0 012.87-2.62H15.7a2.85 2.85 0 012.88 2.62l.7 8.9a.52.52 0 01-.52.56H17.6a.95.95 0 100 1.9h1.18a2.43 2.43 0 002.42-2.6l-.7-8.9a4.71 4.71 0 00-3.91-4.3v-2.45l3.27-.99c.3.63.89 1.98 2.06 4.9a791.68 791.68 0 016.7 17.42.95.95 0 001.78 0 1237.18 1237.18 0 016.7-17.41 98.97 98.97 0 012.06-4.9l3.27.98v5.62a4.93 4.93 0 101.9 0V40.7l7.18 2.17a2.9 2.9 0 012.03 2.3l2.88 16.83a.93.93 0 01-.21.77.93.93 0 01-.72.34H3.52a.93.93 0 01-.72-.34.93.93 0 01-.2-.77l.94-5.55a.95.95 0 10-1.87-.32l-.95 5.55A2.84 2.84 0 003.52 65h51.96a2.84 2.84 0 002.8-3.33zM42.12 19.31c.5-.13.92-.13.92-.13.16 0 .32-.03.47-.1.04.1.06.21.06.33v1.45c0 .5-.4.92-.92.92h-.53V19.3zm-25.24 2.47h-.53a.92.92 0 01-.92-.92V19.4a.9.9 0 01.06-.34c.15.08.3.12.47.11 0 0 .41 0 .92.13v2.47zm1.9 1.06v-2.5a1.33 1.33 0 001.72-1.28v-8.78c0-1.07.87-1.94 1.94-1.94h2.63c.46 0 .92.16 1.28.46l.26.2a4.57 4.57 0 005.78 0l.26-.2c.36-.3.82-.46 1.28-.46h2.63c1.07 0 1.94.87 1.94 1.94v8.78a1.33 1.33 0 001.72 1.28v2.5c0 1.4-.96 4.1-2.74 6.36a12.55 12.55 0 01-2.37 2.32 9.28 9.28 0 01-11.3-.06c-.94-.7-1.7-1.51-2.29-2.26-1.78-2.27-2.74-4.97-2.74-6.36zm16.96 15.38l-6.24 4.66-6.24-4.66c.62-.78.97-1.8.97-2.7V34c1.47.8 3.22 1.32 5.27 1.32 2.05 0 3.8-.53 5.27-1.32v1.54c0 .9.35 1.9.97 2.7zm-14.06-1.06A2.6 2.6 0 0020 37.1l-3.29.99a6.76 6.76 0 015.62-5.33v2.77c0 .6-.27 1.21-.65 1.63zm2.58 7.64v-.01a289.5 289.5 0 00-.17-.43l-.14-.34-.01-.03-.41-1.02-.03-.07a217.08 217.08 0 00-.25-.64l-.04-.07-.18-.46-.05-.12-.07-.17-.07-.18-.03-.07-.02-.05-.32-.75v-.01l-.15-.37-.08-.18 5.36 4.01-2.24.95-.94.4-.16-.39zm2.27 5.83a971.46 971.46 0 00-1.42-3.66l.36-.15 1.45 1.69-.39 2.12zm2.99 7.73a.94.94 0 00-.1-.16l-1.58-4.15.89-4.87h1.54l.89 4.87-1.64 4.31zm1.1-11.08h-2.25l-1.06-1.24 2.19-.93 2.2.93-1.07 1.24zm2.42 1.88l-.57 1.47-.39-2.12 1.45-1.7.36.16-.85 2.19zm3.64-9.15l-.14.35-.02.05-.15.36-.01.03-.14.33-.03.06c0 .03-.02.06-.03.08l-.06.16-.08.19-.03.06a188.04 188.04 0 00-.34.84l-.04.1-.11.28-.03.08-.4 1-.02.04-.13.34a10.92 10.92 0 01-.18.44l-.16.4-.93-.4h-.01l-2.24-.96 5.36-4-.08.17zM39 37.1a2.6 2.6 0 00-1.68.06 2.52 2.52 0 01-.65-1.63v-2.78a6.7 6.7 0 015.62 5.34l-3.3-1zm7.38 13.48a3.02 3.02 0 11-6.04-.01 3.02 3.02 0 016.04 0z" />
        </symbol>

        <symbol id="packaging">
            <path fill="#9D9D9D" d="M57.147 24.121l7.48-7.481a1.27 1.27 0 00-.522-2.11L45.887 8.906A12.669 12.669 0 0033.769 0a12.7 12.7 0 00-11.777 7.95L.891 14.53a1.27 1.27 0 00-.52 2.11l7.678 7.678-4.842 8.071a1.27 1.27 0 00.687 1.858l7.023 2.34v19.526c0 .53.329 1.003.824 1.19 4.295 1.61 20.25 7.594 20.336 7.624.252.089.536.1.813.011l.01-.003 22.852-7.617a1.27 1.27 0 00.868-1.205V36.065l7.49-2.354a1.27 1.27 0 00.518-2.109l-7.481-7.48zM46.464 12.696c0-.323-.013-.645-.038-.966l14.917 4.604-6.335 6.335-10.35-3.45a12.732 12.732 0 001.806-6.523zM24.162 9.39A10.16 10.16 0 0133.77 2.54a10.136 10.136 0 0110.156 10.157c0 2.358-.782 4.568-2.263 6.392a10.12 10.12 0 01-7.893 3.764 10.165 10.165 0 01-8.345-4.368 10.081 10.081 0 01-1.811-5.788c0-1.134.184-2.246.55-3.305zM3.652 16.33l17.557-5.474a12.8 12.8 0 00-.135 1.84c0 2.044.484 4.024 1.407 5.81L9.99 22.67l-6.34-6.34zm2.546 16.01l4.015-6.691 20.383 6.794-4.014 6.691-20.384-6.795zm25.032 29.56l-17.774-6.665v-17.8c13.984 4.637 13.302 4.495 13.69 4.495a1.27 1.27 0 001.09-.616l2.994-4.991v25.577zM32.5 30.4l-18.837-6.278 10.257-3.42a12.704 12.704 0 009.849 4.689 12.64 12.64 0 009.28-4.032l8.287 2.762-18.837 6.28zM54.08 55.198L33.77 61.97V35.357l4.5 5.626c.328.409.873.575 1.373.418l14.44-4.538v18.335zM39.71 38.718l-5.08-6.35 20.38-6.794 6.342 6.343-21.642 6.801z" />
        </symbol>

        <symbol id="writing">
            <path fill="#9D9D9D" d="M59.29.13H5.7A5.72 5.72 0 000 5.84v45.7a5.72 5.72 0 005.71 5.72h32.5v5.7a1.9 1.9 0 003.81 0V43.94h3.94v19.04a1.9 1.9 0 003.8 0V43.93h3.69v19.04a1.9 1.9 0 003.8 0v-5.71h2.04A5.72 5.72 0 0065 51.54V5.84A5.72 5.72 0 0059.29.13zM5.7 3.93H59.3c1.05 0 1.9.86 1.9 1.91v9.52H3.81V5.84c0-1.05.85-1.9 1.9-1.9zm37.97 36.19l4.05-6.1 4.06 6.1h-8.11zm15.6 13.33h-2.02V42.02c0-.37-.12-.74-.32-1.05l-7.62-11.43a1.9 1.9 0 00-3.17 0l-7.62 11.43c-.2.3-.32.68-.32 1.05v11.43H5.71a1.9 1.9 0 01-1.9-1.9V19.16h57.38v32.37a1.9 1.9 0 01-1.9 1.9z" />
        </symbol>
    </defs>
</svg>