<!-- SVG Sprite --> 
<svg xmlns="http://www.w3.org/2000/svg">
  <defs>
    <symbol viewBox="0 0 10 20" id="facebook">
      <path fill="#9B9BCA" d="M6.6 20V10h3l.4-3.4H6.6V4.8c0-.9.1-1.4 1.5-1.4H10V0H7C3.5 0 2.2 1.7 2.2 4.5v2H0V10h2.2v10h4.4z"></path>
    </symbol>
    <symbol viewBox="0 0 16 16" id="instagram">
      <path fill="#9B9BCA" d="M8.002 3.898A4.095 4.095 0 003.9 8a4.095 4.095 0 004.102 4.102A4.095 4.095 0 0012.103 8a4.095 4.095 0 00-4.101-4.102zm0 6.769A2.672 2.672 0 015.335 8a2.67 2.67 0 012.667-2.667A2.67 2.67 0 0110.668 8c0 1.47-1.2 2.667-2.666 2.667zm5.225-6.937a.954.954 0 01-.956.957.957.957 0 11.957-.957zm2.717.971c-.06-1.282-.354-2.417-1.292-3.352C13.717.413 12.582.12 11.3.056c-1.32-.075-5.28-.075-6.6 0-1.278.06-2.413.354-3.352 1.29C.41 2.28.12 3.415.056 4.697c-.075 1.32-.075 5.28 0 6.6.06 1.283.354 2.418 1.292 3.353.94.936 2.07 1.229 3.352 1.293 1.32.075 5.28.075 6.6 0 1.281-.06 2.416-.354 3.352-1.293.935-.935 1.228-2.07 1.292-3.352.075-1.321.075-5.277 0-6.598zm-1.706 8.015a2.7 2.7 0 01-1.521 1.521c-1.053.418-3.552.322-4.715.322-1.164 0-3.666.092-4.715-.322a2.7 2.7 0 01-1.521-1.52C1.348 11.662 1.445 9.163 1.445 8c0-1.164-.093-3.667.321-4.716a2.7 2.7 0 011.52-1.521c1.054-.418 3.552-.322 4.716-.322 1.163 0 3.666-.092 4.715.322a2.7 2.7 0 011.52 1.52c.418 1.054.322 3.553.322 4.717 0 1.164.096 3.667-.321 4.716z"></path>
    </symbol>
    <symbol viewBox="0 0 18 15" id="twitter">
      <path fill="#9B9BCA" fill-rule="evenodd" d="M8.78 4.64l-.04-.65C8.623 2.31 9.65.773 11.276.177c.598-.212 1.613-.238 2.276-.053.26.08.755.344 1.106.583l.637.437.702-.226c.39-.119.91-.317 1.145-.45.221-.119.416-.185.416-.145 0 .225-.481.993-.884 1.416-.547.596-.39.65.715.252.663-.225.676-.225.546.026-.078.133-.481.596-.91 1.02-.728.728-.767.808-.767 1.417 0 .94-.443 2.9-.885 3.972-.82 2.012-2.575 4.091-4.33 5.137-2.472 1.47-5.763 1.84-8.533.98C1.587 14.252 0 13.51 0 13.378c0-.04.481-.093 1.067-.106a7.275 7.275 0 003.485-.98l.702-.424-.806-.278c-1.145-.397-2.172-1.31-2.432-2.171-.078-.278-.052-.291.676-.291l.755-.014-.638-.304c-.754-.384-1.443-1.033-1.782-1.695C.78 6.638.468 5.433.56 5.341c.026-.04.3.04.612.145.897.331 1.014.252.494-.304C.689 4.176.39 2.679.858 1.262L1.08.628l.858.86c1.756 1.735 3.824 2.768 6.19 3.073l.651.08z" clip-rule="evenodd"></path>
    </symbol>
  </defs>
</svg>