<svg xmlns="http://www.w3.org/2000/svg" width="65" height="65" fill="none">
    <path fill="#9D9D9D"
        d="M58.65 0H6.35A6.35 6.35 0 000 6.35V45.2c0 3.5 2.85 6.34 6.35 6.34h19.8v5.84h-1.27a6.3 6.3 0 00-6.34 6.35c0 .7.56 1.27 1.26 1.27h25.4c.7 0 1.26-.57 1.26-1.27 0-3.5-2.84-6.35-6.34-6.35h-1.27v-5.84h19.8c3.5 0 6.35-2.84 6.35-6.34V6.35C65 2.85 62.15 0 58.65 0zM6.35 2.54h52.3c2.1 0 3.81 1.7 3.81 3.8v32.5h-5.84V9.65c0-.7-.57-1.26-1.27-1.26H45.2c-.7 0-1.27.57-1.27 1.27v29.2h-6.36c-.01-1.32-.05-2.61-.1-3.87a81.65 81.65 0 00-1-10.15 6.35 6.35 0 001.74-8.28l-4.4-7.62a1.27 1.27 0 00-2.2 0l-4.4 7.62a6.35 6.35 0 001.4 8 80.6 80.6 0 00-1.07 10.43c-.06 1.27-.1 2.57-.11 3.87h-6.36V19.8c0-.2-.04-.38-.12-.54l-.01-.02-5.08-10.16a1.27 1.27 0 00-2.27 0L8.51 19.24v.02c-.08.16-.13.35-.13.54v19.05H2.54V6.35c0-2.1 1.7-3.81 3.8-3.81zm40.11 36.3V10.93h7.62v2.54h-1.27a1.27 1.27 0 100 2.54h1.27v3.8h-1.27a1.27 1.27 0 100 2.54h1.27v3.81h-1.27a1.27 1.27 0 100 2.54h1.27v5.08h-1.27a1.27 1.27 0 100 2.54h1.27v2.54h-7.62zM32.71 26.07c.46 0 .92-.05 1.37-.15.24 1.51.58 4.18.79 7.86h-4.73c.22-3.67.58-6.39.83-7.95.56.16 1.15.24 1.74.24zm0-2.53a3.81 3.81 0 01-3.3-5.71l3.3-5.72 3.3 5.72a3.81 3.81 0 01-3.3 5.7zM30.02 36.3h4.96c.03.83.04 1.68.05 2.54h-5.06c0-.85.03-1.7.05-2.54zM16 38.85V21.07h2.54v17.78H16zm-5.08 0V21.07h2.54v17.78h-2.54zm.78-20.31l3.03-6.05 3.02 6.05H11.7zm32 43.92H21.3a3.8 3.8 0 013.6-2.54h15.23a3.81 3.81 0 013.59 2.54zm-7.4-5.08h-7.6v-5.84h7.6v5.84zM58.66 49H6.35c-2.1 0-3.81-1.7-3.81-3.8v-3.81h59.92v3.8c0 2.1-1.7 3.81-3.8 3.81z" />
</svg>