<svg xmlns="http://www.w3.org/2000/svg" width="65" height="65" fill="none">
    <path fill="#9D9D9D"
        d="M57.147 24.121l7.48-7.481a1.27 1.27 0 00-.522-2.11L45.887 8.906A12.669 12.669 0 0033.769 0a12.7 12.7 0 00-11.777 7.95L.891 14.53a1.27 1.27 0 00-.52 2.11l7.678 7.678-4.842 8.071a1.27 1.27 0 00.687 1.858l7.023 2.34v19.526c0 .53.329 1.003.824 1.19 4.295 1.61 20.25 7.594 20.336 7.624.252.089.536.1.813.011l.01-.003 22.852-7.617a1.27 1.27 0 00.868-1.205V36.065l7.49-2.354a1.27 1.27 0 00.518-2.109l-7.481-7.48zM46.464 12.696c0-.323-.013-.645-.038-.966l14.917 4.604-6.335 6.335-10.35-3.45a12.732 12.732 0 001.806-6.523zM24.162 9.39A10.16 10.16 0 0133.77 2.54a10.136 10.136 0 0110.156 10.157c0 2.358-.782 4.568-2.263 6.392a10.12 10.12 0 01-7.893 3.764 10.165 10.165 0 01-8.345-4.368 10.081 10.081 0 01-1.811-5.788c0-1.134.184-2.246.55-3.305zM3.652 16.33l17.557-5.474a12.8 12.8 0 00-.135 1.84c0 2.044.484 4.024 1.407 5.81L9.99 22.67l-6.34-6.34zm2.546 16.01l4.015-6.691 20.383 6.794-4.014 6.691-20.384-6.795zm25.032 29.56l-17.774-6.665v-17.8c13.984 4.637 13.302 4.495 13.69 4.495a1.27 1.27 0 001.09-.616l2.994-4.991v25.577zM32.5 30.4l-18.837-6.278 10.257-3.42a12.704 12.704 0 009.849 4.689 12.64 12.64 0 009.28-4.032l8.287 2.762-18.837 6.28zM54.08 55.198L33.77 61.97V35.357l4.5 5.626c.328.409.873.575 1.373.418l14.44-4.538v18.335zM39.71 38.718l-5.08-6.35 20.38-6.794 6.342 6.343-21.642 6.801z" />
</svg>