<svg xmlns="http://www.w3.org/2000/svg" width="65" height="65" fill="none">
    <path fill="#9D9D9D"
        d="M59.29.13H5.7A5.72 5.72 0 000 5.84v45.7a5.72 5.72 0 005.71 5.72h32.5v5.7a1.9 1.9 0 003.81 0V43.94h3.94v19.04a1.9 1.9 0 003.8 0V43.93h3.69v19.04a1.9 1.9 0 003.8 0v-5.71h2.04A5.72 5.72 0 0065 51.54V5.84A5.72 5.72 0 0059.29.13zM5.7 3.93H59.3c1.05 0 1.9.86 1.9 1.91v9.52H3.81V5.84c0-1.05.85-1.9 1.9-1.9zm37.97 36.19l4.05-6.1 4.06 6.1h-8.11zm15.6 13.33h-2.02V42.02c0-.37-.12-.74-.32-1.05l-7.62-11.43a1.9 1.9 0 00-3.17 0l-7.62 11.43c-.2.3-.32.68-.32 1.05v11.43H5.71a1.9 1.9 0 01-1.9-1.9V19.16h57.38v32.37a1.9 1.9 0 01-1.9 1.9z" />
</svg>